<?xml version="1.0" encoding="UTF-8"?>
<svg id="Layer_1" data-name="Layer 1" xmlns="http://www.w3.org/2000/svg" viewBox="0 0 830.54 353.74">
  <defs>
    <style>
      .cls-1 {
        fill: #da9900;
        stroke-width: 0px;
      }
    </style>
  </defs>
  <path class="cls-1" d="M104.57,215.34c9.81,2.29,16.7,5.06,20.67,8.31,5.69,4.63,8.54,10.63,8.54,18,0,7.78-3.13,14.21-9.38,19.3-7.68,6.15-18.84,9.23-33.48,9.23h-52.55v-2.82c4.78,0,8.02-.44,9.72-1.33,1.7-.89,2.9-2.05,3.58-3.47.69-1.42,1.03-4.93,1.03-10.53v-67.12c0-5.59-.34-9.11-1.03-10.56-.69-1.45-1.89-2.61-3.62-3.47-1.73-.86-4.96-1.3-9.69-1.3v-2.82h49.57c11.85,0,20.24,1.06,25.17,3.17,4.93,2.11,8.82,5.26,11.67,9.46,2.85,4.2,4.27,8.66,4.27,13.39,0,4.98-1.81,9.42-5.42,13.31-3.61,3.89-9.97,6.98-19.07,9.27ZM76.81,219.23v33.18l-.08,3.81c0,2.75.7,4.82,2.1,6.22,1.4,1.4,3.47,2.1,6.22,2.1,4.07,0,7.82-.9,11.25-2.71,3.43-1.8,6.06-4.42,7.89-7.86,1.83-3.43,2.75-7.26,2.75-11.48,0-4.83-1.12-9.16-3.36-13-2.24-3.84-5.31-6.52-9.23-8.05-3.92-1.53-9.76-2.26-17.54-2.21ZM76.81,213.28c7.22,0,12.55-.81,15.98-2.44,3.43-1.63,6.06-3.91,7.89-6.86,1.83-2.95,2.75-6.71,2.75-11.29s-.9-8.33-2.71-11.25c-1.81-2.92-4.39-5.15-7.74-6.67-3.36-1.53-8.75-2.26-16.17-2.21v40.73Z"/>
  <path class="cls-1" d="M592.59,166.33l51.02,64.14v-44.47c0-6.2-.89-10.4-2.67-12.59-2.44-2.95-6.53-4.37-12.28-4.27v-2.82h34.17v2.82c-4.37.56-7.31,1.28-8.81,2.17-1.5.89-2.67,2.34-3.51,4.35-.84,2.01-1.26,5.45-1.26,10.33v86.11h-2.59l-69.94-86.11v65.74c0,5.95,1.36,9.97,4.08,12.05,2.72,2.09,5.83,3.13,9.34,3.13h2.44v2.82h-36.69v-2.82c5.69-.05,9.66-1.22,11.9-3.51,2.24-2.29,3.36-6.18,3.36-11.67v-72.99l-2.21-2.75c-2.19-2.75-4.12-4.55-5.8-5.42-1.68-.86-4.09-1.35-7.25-1.45v-2.82h36.69Z"/>
  <path class="cls-1" d="M713.5,172.28v42.1h2.06c6.56,0,11.31-2.06,14.26-6.18,2.95-4.12,4.83-10.19,5.64-18.23h2.9v54.15h-2.9c-.61-5.9-1.89-10.73-3.85-14.49-1.96-3.76-4.23-6.29-6.83-7.59-2.59-1.3-6.36-1.94-11.29-1.94v29.13c0,5.69.24,9.18.72,10.45.48,1.27,1.38,2.31,2.71,3.13,1.32.81,3.46,1.22,6.41,1.22h6.18c9.66,0,17.4-2.24,23.22-6.71,5.82-4.47,10-11.29,12.55-20.44h2.82l-4.65,32.87h-89.39v-2.82h3.43c3,0,5.42-.53,7.25-1.6,1.32-.71,2.34-1.93,3.05-3.66.56-1.22.84-4.42.84-9.61v-68.03c0-4.68-.13-7.55-.38-8.62-.51-1.78-1.45-3.15-2.82-4.12-1.93-1.42-4.58-2.14-7.93-2.14h-3.43v-2.82h86.57v30.58h-2.9c-1.48-7.47-3.55-12.84-6.22-16.09-2.67-3.25-6.44-5.64-11.33-7.17-2.85-.92-8.19-1.37-16.02-1.37h-10.68Z"/>
  <g>
    <path class="cls-1" d="M304.07,248.55c-.47-1.23-.96-2.5-1.39-3.77-.16-.49-.32-1-.48-1.52-1.03-3.32-2.19-7.07-5.05-9.46-1.05-.94-2.17-1.79-3.24-2.62-2.4-1.84-4.67-3.58-6.25-6.19-.18-.32-.45-.78-.73-1.24-.29-.48-.57-.96-.76-1.29-3.16-5.33-8.96-9.36-15.92-11.07l-.2-.05-.05.2q-.09.34-.03.42l.04.05.06.02c4.17,1.57,9.9,4.62,13.52,10.28.45.7.85,1.48,1.25,2.24.52,1.01,1.06,2.05,1.71,2.94,1.53,2.32,3.75,4.09,5.9,5.79,1.03.82,2,1.59,2.91,2.42,2.27,2.02,3.17,4.66,4.11,7.46.27.81.56,1.64.88,2.47.54,1.36,1.15,2.71,1.74,4.01,1.05,2.33,2.05,4.54,2.7,6.86,1.18,3.85.11,7.25-3.12,9.83-5.17,4.35-11.63,8.05-20.32,11.64-1.75.68-3.62,1.37-5.49,1.83l-.38.08c-.95.21-1.85.41-2.69.21-.56-.17-1.16-.31-1.75-.44l-.49-.11c-.86-.2-1.75-.38-2.6-.55-3.3-.66-6.72-1.35-9.4-3.3-2.37-2.09-4.35-4.85-5.57-7.78-.9-2.24-1.29-4.44-1.17-6.55.09-.99.2-2.13.23-3.01.09-4.8-1.09-9.64-2.02-13.53-.09-.39-.19-.79-.29-1.19-.35-1.41-.71-2.86-.65-4.27,0-.41.08-.85.15-1.31.08-.48.16-1.02.19-1.64,0-2.1-.8-4.04-1.57-5.91-.76-1.85-1.48-3.6-1.5-5.49.05-6.41,1.92-10.39,5.71-12.16l.18-.09-.25-.59-.18.06c-5.81,1.97-7.07,8.72-7.31,12.56-.17,2.32.55,4.46,1.25,6.53.28.82.56,1.66.79,2.51.56,1.47.37,2.51.14,3.82-.09.48-.17.97-.24,1.55-.13,1.75.22,3.41.56,5.02.09.4.17.81.25,1.22l.06.27c.77,3.68,1.57,7.48,1.65,11.15.05,1.4-.08,2.95-.22,4.3-.15,2.65.36,5.38,1.47,7.9,1.55,3.46,3.77,6.42,6.63,8.81,3.27,2.35,7.37,3.02,10.98,3.61.77.12,1.53.25,2.26.38.2.04.39.08.59.11.5.09,1.02.19,1.5.32.36.09.73.12,1.1.12,1.12,0,2.25-.33,3.14-.6,2.05-.63,3.98-1.48,5.64-2.24,8.52-4.1,15.01-8.02,20.41-12.34,3.69-2.81,5.15-6.79,4.08-11.19-.57-2.62-1.53-5.13-2.47-7.56Z"/>
    <path class="cls-1" d="M335.88,228.39c-.26-1.21-1.15-2.21-2.63-2.95-.55-.31-1.12-.57-1.66-.82-1.03-.47-2-.92-2.86-1.69l-.79-.72c-2.36-2.14-5.04-4.57-8.15-5.8-2.75-1.15-5.7-1.78-8.56-2.4-2.41-.52-4.91-1.06-7.21-1.9-.22-.12-.36-.22-.48-.35-.37-.4-.38-.98-.34-1.56.06-.88.29-1.81.52-2.7.16-.66.33-1.34.43-1.98.74-4.08-.25-8.66-2.73-12.57-1.82-2.92-4.36-5.54-7.78-8.02-5.87-4.51-13.47-6.67-20.83-5.93-5.17.51-10.39,2.17-15.52,4.93-1.75.9-3.34,1.97-4.62,3.08-4.41,3.92-7.73,9.32-9.91,16.07-.1.25-.2.53-.3.9-.08.28-.16.55-.24.83h0c-.1.3-.19.61-.27.92-.03.1-.06.19-.09.29l-.08.53c-.27,1.33-.87,4.19-1.71,7.84l-2.44,9.8c.04-.09.08-.18.12-.27-1.54,5.96-3.37,12.25-5.24,16.95-.7,1.76-1.28,3.29-1.77,4.64-2.49,5.14-5.74,9.24-9.67,12.26-5.82,4.47-13.56,6.71-23.22,6.71h-6.18c-2.95,0-5.09-.41-6.41-1.22-1.32-.81-2.22-1.86-2.71-3.13-.48-1.27-.72-4.75-.72-10.45v-29.14c4.93,0,8.69.65,11.29,1.94,2.59,1.3,4.87,3.83,6.83,7.59,1.96,3.76,3.24,8.59,3.85,14.49h2.9v-54.15h-2.9c-.81,8.03-2.7,14.11-5.64,18.23-2.95,4.12-7.7,6.18-14.26,6.18h-2.06v-42.1h10.68c7.83,0,13.17.46,16.02,1.37,4.88,1.53,8.66,3.92,11.33,7.17,2.67,3.25,4.74,8.62,6.22,16.09h2.9v-30.58h-86.57v2.82h3.43c3.36,0,6,.71,7.93,2.14,1.37.97,2.31,2.34,2.82,4.12.25,1.07.38,3.94.38,8.62v68.03c0,5.19-.28,8.39-.84,9.61-.71,1.73-1.73,2.95-3.05,3.66-1.83,1.07-4.25,1.6-7.25,1.6h-3.43v2.82h89.39l3.03-21.39h0s1.36-7.48,3.29-16.71c2.36-10.23,2.77-11.82,4.21-17.19.79-2.95,1.34-5.47,2.26-8.74l.33-1.13c.32-1.09.72-2.25,1.15-3.43.19-.48.35-.92.51-1.32,1.65-4.15,4-8.56,7.32-11.92,4.9-4.58,11.84-7.53,19.02-8.09,6.76-.47,13.6,1.86,19.28,6.57,2.97,2.35,5.28,4.89,6.87,7.55,2.27,3.78,2.91,7.97,1.81,11.81-.09.45-.2.89-.3,1.33-.38,1.56-.78,3.17-.17,4.95.2.48.51.93.93,1.37.08.1.19.19.3.27.07.05.14.11.19.16.39.44.92.66,1.3.82,2.46.79,5.01,1.28,7.48,1.75,2.74.52,5.57,1.07,8.24,2.02,2.63.92,4.75,2.6,6.99,4.38.54.43,1.09.87,1.65,1.29.7.56,1.51.95,2.18,1.24-.29,1.33-.87,2.58-1.79,3.79h0c-.09.14-.18.27-.28.4-.4.54-.85,1.15-.96,1.97-.19,1,.25,2.32,1.28,2.73l.11.04.32-.24v-.12c-.11-.88.06-1.34.3-1.9.16-.46.34-.93.54-1.41.64-1.61,1.29-3.27,1.16-4.98h.02s0,0,0,0c.18.07.37.15.55.22.55.21,1.07.42,1.57.65.88.42,1.48.86,1.83,1.34.37.48.45,1.16.26,2.03-.34,1.42-1.04,2.92-2.18,4.7l-.1.16.51.39.13-.16c1.51-1.87,3.47-4.63,2.96-7Z"/>
    <path class="cls-1" d="M328.25,239.86c-.12.35-.35.68-.73,1.02-.88.74-1.77,1.45-2.52,2.04-2.32.99-5.4,2.2-8.63,2.92-2.93.58-6.11.99-10.33,1.32v.41c.61.04,1.22.06,1.85.06,2.87,0,5.93-.37,8.67-.73,1.75-.24,3.43-.68,5.04-1.33-.62.48-1.21.96-1.8,1.44-3.14,2.25-6.63,3.89-10.1,4.76l.08.41c4.65-.58,9.78-3.18,15.24-7.73.32-.32.67-.62,1.04-.94,1.16-.99,2.35-2.02,2.67-3.54l.04-.21-.47-.09-.06.17Z"/>
    <path class="cls-1" d="M292.62,274.63l-.06-.2-.2.06c-.21.06-.33.1-.31.29.97,4.85,1.34,9.84,1.64,14.52.12,2.23.11,4.64-.03,7.17-.11,1.91-.46,4.36-2.24,6.33l-.12.13.32.41.16-.09c5.18-2.88,4.18-10.19,3.65-14.11-.55-4.41-1.32-9.58-2.81-14.51Z"/>
  </g>
  <g>
    <path class="cls-1" d="M537.13,179.29c-10.3-10.22-23.68-15.03-40.16-14.42-9.4-.38-17.89,1.32-25.46,5.07-.3-11.7-.48-23.88-1.77-32.17-1.17-7.88-4.64-20.48-7.08-28.1-4.29-12.13-14.35-22.33-25.57-29.15l-.21.32c4.68,4.34,8.44,9.49,11.73,14.84,3.26,5.39,5.94,11.11,8.32,16.93,2.46,5.79,3.14,10.86,4.45,17.01,2.7,12.62,2.77,26.67,3.91,39.45.11,1.44.22,2.88.35,4.32-2.52,1.72-4.93,3.69-7.22,5.94-3.72,3.65-6.76,7.62-9.16,11.92-1.19-1.49-2.26-2.89-3.14-4.18-5.79-8.45-9.11-20.03-11.2-37.12s1.04-29.62-7.03-49.56c-8.07-19.94-19.37-24.97-19.37-24.97-.57.66.19,1.9,1.05,2.66.85.76,5.2,6.99,10.04,15.35,4.84,8.35,8.37,28.23,8.37,28.23,0,0,2.28,11.3,2.47,22.12.19,10.82,3.8,26.01,8.73,38.35,2.15,5.38,4.92,10.02,7.69,13.99-1.43,3.4-2.49,6.97-3.18,10.73-.12-.18-.25-.35-.37-.53-1.96-2.89-3.43-6.22-5.25-9.25-3.46-5.55-7.44-10.72-11.98-15.45.7-1.27,1.27-2.63,1.73-4.02,1.45-3.76,2.85-7.54,3.99-11.45l-.34-.16c-2.3,3.35-4.35,6.84-6.34,10.35-3.36,6.59-5.7,8.05-12.35,9.61-6.82,1.46-10.83,7.43-12.73,13.67-2.07,5.68-5.14,10.92-8.12,16.22-2.86,5.31-3.6,11.77-4.52,17.63-.67,3.56-2.81,6.93-5.57,9.82l.21.32c3.72-1.8,6.85-5.14,8.2-9.41,1.68-5.77,2.17-11.8,3.62-17.57,1.74-5.79,4.98-10.9,8.07-16.13,2.5-4.33,4.84-8.28,9.24-9.97,1.7-.66,3.74-.93,5.59-1.5,3.95-.79,6.78-3.24,8.75-6.39,1.22,2.56,2.61,5.01,4.04,7.43,3.48,6.26,8.25,11.5,12.8,16.99.36.47.73.94,1.09,1.41-.46,2.98-.7,6.07-.7,9.28,0,13.68,4.02,25.5,12.05,35.47,10.17,12.61,24.56,18.91,43.17,18.91s32.92-6.61,43.09-19.83c7.68-9.97,11.52-21.51,11.52-34.63,0-15.36-5.15-28.14-15.44-38.36ZM521.3,246.98c-2.49,7.14-5.98,12.34-10.45,15.6-3.51,2.54-7.88,3.81-13.12,3.81-7.78,0-13.83-2.95-18.15-8.85-6.2-8.44-9.3-21.48-9.3-39.13,0-14.85,2.01-26.24,6.03-34.17,4.93-9.66,12.13-14.49,21.58-14.49,5.14,0,9.67,1.4,13.61,4.2,3.94,2.8,7.18,7.59,9.72,14.38,2.54,6.79,3.81,17.02,3.81,30.7,0,11.49-1.25,20.81-3.74,27.95Z"/>
    <path class="cls-1" d="M361.3,96.88c.05.13.1.26.16.39-.03-.13-.05-.26-.08-.38.66.04,1.33.06,1.99.04l.04-.38c-.76-.23-1.51-.48-2.25-.75-.82-3.92-1.74-7.9-3.54-11.47-2.38-3.69-5.56-6.64-9.01-9.26,2.85,1.14,5.75,2.09,8.43,3.52,3.42,1.94,7.11,5.05,11.29,4.69-2.48,3.34-4.21,7.26-5.05,11.27-.04.16.21.21.24.06,2.28-5.94,6-11.68,11.72-14.71,2.75-1.53,5.58-3.35,8.6-4.49.06.38.11.76.19,1.13,1.56,6.59,7.26,12.48,14.07,13.18l.09-.37c-4.75-2.57-8.28-6.35-10.11-11.24-1.16-3.21-1.7-6.77-2.15-10.17-.74-4.73-.93-9.49-.73-14.26,0-.07.09-.12.15-.07,4.97,3.85,10.25,8.15,12.54,14.02,1.53,5.12,3.74,10.21,3.78,15.61-.01,7.53.29,7.44,1.93.22,1.12-4.74-.04-9.7-1.12-14.32-.86-5.07-4.13-9.25-7.97-12.36-3.12-2.71-6.67-4.69-10.38-6.4-.45-.21-.95.17-.89.66.49,3.81.84,7.66.81,11.49.02,3.91-.73,7.91-.36,11.83-2.15-.08-4.32.59-6.29,1.4-3.41,1.55-6.3,3.98-8.61,6.9-3.13-.74-5.37-3.25-7.78-5.26-2.52-2.5-6.06-4.28-9.33-5.47-2.72-1.02-6.75-2.31-9.21-3.83-1.99-1.1-3.89-2.49-6-3.56-.19-.07-.37-.12-.61-.11-.17-.03-.73.22-.81.42-.3.47-.26.71-.16,1.1,2.01,4.07,3.71,8.28,4.88,12.68.97,3.48,1.9,7.01,4.28,9.87,4.25,5.15,10.72,7.98,17.23,8.36ZM337.56,68.27c2.33,2.15,4.91,4.13,7.83,5.41.97.48,1.96.91,2.96,1.32,3.23,3.87,7.91,8.13,9.48,12.93l1.17,3.12c.57,1.56,1.18,3.1,1.81,4.65-5.58-2.01-10.72-4.91-14.09-9.27-1.96-2.62-3.33-5.74-5.08-8.55-1.78-2.99-3.07-6.26-4.07-9.6Z"/>
    <path class="cls-1" d="M384.85,225.33l-.36-.11c-.73,1.92-1.38,3.88-1.97,5.85-1.38,3.46-.92,8.1-4.29,10.45-7.71,5.32-19.54,2.59-25.63-4.05-2.11-2.49-3.73-5.6-4.92-8.67-.07-.19-.2-.51-.21-.58,0,0-.13-.68-.13-.68-.83-3.76-.82-7.81-.61-11.65,1.13-18.24,4.87-36.46,8.66-54.36,1.39-6.18.87-12.9-1.74-18.7-1.55-3.63-3.07-7.09-2.87-10.99.28-6.85,5.98-12.27,9.76-17.74,2.83-4.55,3.38-10.11,3.02-15.32h-.38c-.4,4.04-1.25,8.09-3,11.58-1.82,3.53-5.11,6.13-7.53,9.37-4.26,4.98-6.67,12.15-4.37,18.56,1.27,4.03,3.58,7.34,4.75,11.27,1.78,5.79.99,11.83-.09,17.78-2.68,16.9-14.27,48.82-8.42,64.35,2.09,5.02,5.36,10.1,10.36,12.61,7.62,4.17,17.98,5.08,24.94-.88,1.72-1.51,2.92-3.78,3.08-6.05.37-3.98,1.15-8.03,1.95-12.03Z"/>
    <path class="cls-1" d="M369.89,229.61c-1.31,1.07-3.58,5.07-4.24,1.43,0-.12-.17-.18-.24-.08-.76.97-.53,2.62.68,3.23,2.38,1.37,6.49-2.74,6.37-5-.28-2.62-2.3-4.52-3.12-6.69-.76-1.7-1.84-3.69-3.78-4.28-.14-.05-.22.17-.09.23.78.4,1.36,1.17,1.78,1.94.43.79.66,1.62.9,2.53.51,1.87,1.49,3.63,1.97,5.21.15.65.27,1.07-.23,1.46Z"/>
    <path class="cls-1" d="M350.63,219.47c.01-.15-.16-.24-.23-.09-.58,1.67.71,3.35,1.47,4.62.66,1.57,1.4,2.58,3.14,3.28.09.04.2,0,.23-.1.3-1.01.12-1.87-.17-2.65-.99-2.04-3.9-2.81-4.44-5.07Z"/>
    <path class="cls-1" d="M390.97,77.4c-1.33-2.74-1.48-5.91-2.26-14.8-.16-1.38-.31-2.8-.76-4.16-.02-.07-.13-.05-.12.02-.13,5.58-.45,11.27,1.15,16.72,2.11,5.25,5.74,10.1,11.11,12.28-5.88-5.47-7.93-7.6-9.12-10.06Z"/>
    <path class="cls-1" d="M457.5,284.02c-3.61-5.13-7.4-11.39-8.54-17.18-.36-1.81-.7-3.22-1.01-4.29,1.93,1.84,3.48,3.24,3.48,3.24,0,0,.76-1.9-4.94-7.97-5.7-6.08-6.41-6.51-10.99-21.95-1.92-6.48-1.31-11.7-1.21-16.59.18-8.62,1.19-16.33,1.19-16.33,0,0,.24-1.68-.12-2.32s-1.57,2.78-3.63,11.11c-2.06,8.33-1.38,17.21-1.38,17.21.76,10.61,8.54,23.18,11.01,26.6.95,1.32,2.67,3.14,4.41,4.89.29,2.04,1.01,6.77,1.66,9.54.85,3.61,2.28,10.16,6.93,15.95,4.65,5.79,9.3,7.4,10.89,7.97,1.59.57,2.54,1.12,2.49.76,0,0-6.65-5.51-10.25-10.63Z"/>
  </g>
  <g>
    <path class="cls-1" d="M780.14,166.33c-6.63,0-12.03-5.4-12.03-12.03s5.4-12.03,12.03-12.03,12.03,5.4,12.03,12.03-5.4,12.03-12.03,12.03ZM780.14,144.71c-5.29,0-9.59,4.3-9.59,9.59s4.3,9.59,9.59,9.59,9.59-4.3,9.59-9.59-4.3-9.59-9.59-9.59Z"/>
    <path class="cls-1" d="M779.48,153.32c.67,0,1.16-.13,1.45-.39.29-.24.45-.66.45-1.25s-.16-.98-.45-1.23c-.29-.24-.78-.37-1.45-.37h-1.37v3.24h1.37M778.11,155.55v4.76h-3.25v-12.59h4.96c1.66,0,2.87.28,3.64.84.78.55,1.16,1.43,1.16,2.64,0,.83-.2,1.51-.6,2.05-.4.53-1,.93-1.82,1.17.45.11.84.34,1.2.7.35.35.71.89,1.06,1.62l1.77,3.57h-3.46l-1.54-3.13c-.31-.62-.62-1.06-.94-1.28-.32-.23-.75-.35-1.27-.35h-.92"/>
  </g>
</svg>