<svg viewBox="0 0 847.058 1068.42" xmlns="http://www.w3.org/2000/svg"><path d="M444.235 21.333h224.94V45.32c0 94.203 63.897 173.482 150.715 196.862l1.427.327h25.74v224.94H823.53c-55.713-.122-108.75-11.44-157.022-31.824l2.668 1v274.118c0 184.788-149.8 334.588-334.588 334.588S0 895.532 0 710.744s149.8-334.588 334.588-334.588h23.53v224.376h-23.86c-60.685 0-109.88 49.196-109.88 109.882s49.195 109.882 109.88 109.882c60.604 0 109.75-49.062 109.883-109.634v-.013zm178.824 47.06H491.293v642.352c-.208 86.39-70.287 156.34-156.705 156.34-86.547 0-156.707-70.16-156.707-156.705 0-78.242 57.34-143.09 132.293-154.816l.883-.114V424.156c-148.347 12.545-264 136.05-264 286.565 0 158.8 128.73 287.53 287.528 287.53 158.79 0 287.516-128.718 287.53-287.505v-349.13l43.48 21.74c39.138 19.765 84.877 32.766 133.265 36.17l1.136.065V285.378C703.533 255.394 632.93 171.272 623.275 69.396l-.077-1.006z"/></svg>